<svg xmlns="http://www.w3.org/2000/svg" xml:space="preserve" width="25" height="25" style="shape-rendering:geometricPrecision;text-rendering:geometricPrecision;image-rendering:optimizeQuality;fill-rule:evenodd;clip-rule:evenodd" viewBox="0 0 6.827 6.827"><defs><clipPath id="id0"><path d="M3.413 0a3.413 3.413 0 1 1 0 6.827 3.413 3.413 0 0 1 0-6.827z"/></clipPath><style>.fil2{fill:none}.fil1{fill:#c2185b}.fil3{fill:#f5d2c1}.fil5{fill:#f6c4aa}.fil4{fill:#fdc}.fil8{fill:#fff}.fil9{fill:#ff0;fill-rule:nonzero}</style></defs><g id="Layer_x0020_1"><path d="M3.413 0a3.413 3.413 0 1 1 0 6.827 3.413 3.413 0 0 1 0-6.827z" style="fill:#ec407a"/><g style="clip-path:url(#id0)"><g id="_435557536"><path id="_4303763841" class="fil1" d="M4.083 1.768 7.87 5.554l.02.026.019.027.017.03.017.03.015.033.014.035.013.037.012.039.01.04.009.043.007.045-3.786-3.786-.008-.045-.008-.043-.01-.04-.012-.04-.013-.036-.014-.035-.015-.033-.017-.03-.018-.03-.019-.027z"/><path id="_430376936" class="fil1" d="M4.237 2.153 8.023 5.94 4.237 2.154z"/><path id="_430377536" class="fil1" d="M4.237 2.153 8.023 5.94v.004l.001.002v.005l.001.002v.004L4.24 2.171v-.002l-.001-.003v-.004l-.001-.002v-.004z"/><path id="_430377752" class="fil1" d="m4.24 2.17 3.786 3.787-3.787-3.786z"/><path id="_430377584" class="fil1" d="m4.24 2.17 3.785 3.787.002.01.001.012.001.01.001.012.002.011v.012l.001.011.001.012.001.012v.012l.001.012v.012l.001.012v.025l.001.013v.092l-.001.014-.001.014v.014l-.001.014-.001.014-.001.015-.001.014-.001.015-.001.014L4.243 2.58l.002-.015V2.55l.002-.015v-.014l.001-.014.001-.014v-.014l.001-.014V2.45l.001-.013v-.129l-.001-.012v-.012l-.001-.012-.001-.012v-.012l-.002-.011v-.012l-.002-.011v-.011l-.002-.011-.001-.011z"/><path id="_430377728" class="fil1" d="M4.283 2.6 8.07 6.388l.005.005.004.006.003.005.004.007.003.007.003.007.002.007.003.008.002.008.002.009.002.009v.01l.002.009v.01l.001.01V6.555l-.002.011-.001.011-.002.012-.002.011-.002.011-.003.012-.003.012-3.786-3.787.003-.011.002-.012.003-.011.002-.012.001-.011.002-.011V2.77l.002-.011v-.052l-.001-.01-.001-.01-.002-.008-.001-.01-.002-.008-.002-.008-.003-.008-.003-.008-.003-.007-.003-.006-.003-.007-.004-.006-.004-.005z"/><path id="_430377032" class="fil1" d="M4.304 2.85 8.09 6.635l-.003.01-.002.009-.003.009-.004.01-.003.008-.003.009-.004.008-.004.009-.003.008-.004.007-.004.008-.004.007-.005.007-.004.007-.004.006-.005.007-.004.006-.005.005-.005.006-.004.005-.005.004-.005.005-.005.004-.005.003-.004.004-.005.003-.005.002-.005.003-.005.002-.005.001-.005.001-.005.001-3.786-3.786h.005l.005-.002.005-.002.005-.002.005-.002.004-.002.005-.003.005-.004.005-.004.005-.004.005-.004L4.226 3l.005-.005.005-.005.004-.006.005-.006.004-.006.005-.006.004-.007.004-.007.004-.007.004-.008.004-.008.004-.008.004-.008.003-.008.004-.01.003-.008.003-.01.003-.009.003-.01z"/><path id="_430377800" class="fil1" d="M4.168 3.034 7.954 6.82l-.002.012-.003.01-.003.012-.003.01-.003.011-.003.01-.002.011-.003.01-.003.01-.003.009-.003.01-.003.008-.003.009-.002.008-.003.008-.003.008-.002.008-.003.007-.003.007-.002.006-.003.007-.002.006-.002.005-.003.006-.002.005-.002.004-.002.005-.002.004-.002.003-.002.003-.002.003-.001.003-3.787-3.786.002-.003.002-.003.002-.003.002-.004.002-.004.002-.004.002-.005.002-.005.002-.005.003-.006.002-.006.003-.006.002-.007.003-.007.002-.007.003-.007.003-.008.002-.008.003-.009.003-.008.003-.01.003-.008.003-.01.002-.01.003-.01.003-.01.003-.01.003-.01.003-.011.003-.011.002-.012z"/><path id="_430377872" class="fil1" d="m2.603 2.17 3.786 3.787-3.786-3.786z"/><path id="_430373936" class="fil1" d="m3.763 3.616 3.786 3.786v.092L3.763 3.708z"/><path id="_430374632" class="fil1" d="m3.763 3.708 3.786 3.786V7.6L3.763 3.814z"/><path id="_430374296" class="fil1" d="m4.087 3.272 3.787 3.786-.005.007-.006.008-.006.009-.006.009-.006.009-.007.01-.007.01-.007.01-.008.01-.008.01-.009.012-.008.01-.01.012-.009.012-.01.011-.01.012-.01.012-.01.012-.011.012-.012.012-.011.011-.012.012-.012.012-.013.012-.013.012-.013.011-.014.012-.013.01-.015.012-.014.01-.015.01-.015.011-3.786-3.786.015-.01.015-.01.014-.012.014-.01.014-.012.014-.011.013-.012.013-.011.012-.012.013-.012.012-.012.011-.012.011-.012.011-.012.011-.011.01-.012.01-.012.01-.012.01-.011.008-.012.01-.01.008-.012.008-.01.007-.01.008-.011.007-.01.007-.01.006-.009.006-.008.006-.009.005-.008z"/><path id="_430374032" class="fil1" d="M4.783 4.387 8.57 8.173l.004.005.003.004.003.005.004.004.003.005.003.005.003.005.004.005.003.006.003.005.003.006.003.006.003.006.003.006.003.006.003.006-3.786-3.786-.003-.007-.003-.006-.003-.006-.003-.006-.003-.005-.003-.006-.003-.005-.004-.006-.003-.005-.003-.005L4.8 4.41l-.004-.005-.003-.005-.003-.004-.003-.005z"/><path id="_430373960" class="fil1" d="m4.84 4.47 3.786 3.787.005.024-3.787-3.787z"/><path id="_430374584" class="fil1" d="m4.844 4.494 3.787 3.787.007.017.007.02.008.019.007.02.007.02.007.022.007.021.006.023.007.023.006.023.007.024.006.024.006.025.006.025.006.026.006.025.006.026.006.027.006.026.005.027.006.026.006.027.005.027.006.027.005.027.006.027.006.027.005.027.006.027.005.027.006.027.005.026L5.041 5.28l-.006-.027-.005-.026-.006-.027-.005-.027-.006-.027-.005-.027-.006-.027-.005-.027-.006-.027-.006-.027-.005-.027-.006-.027-.006-.026-.005-.027-.006-.026-.006-.026-.006-.026-.006-.025-.006-.025-.006-.025-.007-.024-.006-.024-.006-.023-.007-.023-.007-.023-.006-.022-.007-.021-.007-.02-.007-.02-.008-.02-.007-.019z"/><path id="_430374464" class="fil1" d="M3.064 3.611 6.85 7.398l-.015-.01-.014-.01-.015-.012-.014-.01-.013-.012-.014-.01-.013-.012-.013-.012-.012-.011-.013-.012L2.928 3.5l.012.011.013.012.013.011.013.012.013.011.014.011.014.011.015.01.014.011z"/><path id="_430374176" class="fil1" d="m4.4 5.28 3.786 3.786L4.4 5.28z"/><path id="_430374104" class="fil1" d="M4.364 5.28 8.15 9.066H7.2L3.413 5.28z"/><path id="_430374224" class="fil1" d="m4.4 5.28 3.786 3.786H8.15L4.364 5.28z"/><path id="_430375208" class="fil1" d="M3.413 5.28 7.2 9.066h-.95L2.466 5.28z"/><path id="_430375352" class="fil1" d="M2.465 5.28 6.25 9.066 2.465 5.28z"/><path id="_430375304" class="fil1" d="M2.465 5.28 6.25 9.066h-.018L2.446 5.28z"/><path id="_430374968" class="fil1" d="m2.428 5.28 3.787 3.786h-.643L1.786 5.28z"/><path id="_430374992" class="fil1" d="m2.446 5.28 3.787 3.786h-.018L2.428 5.28z"/><path id="_430375016" class="fil1" d="m2.658 3.03 3.786 3.787-.004-.002-.005-.002-.004-.002-.005-.003-.004-.003-.005-.003-.004-.003-.004-.004-.005-.004-3.786-3.786.004.004.005.003.004.004.004.003.005.003.004.002.005.003.004.002z"/><path id="_430374776" class="fil1" d="m5.04 5.28 3.787 3.786h-.64L4.4 5.28z"/><path id="_430374752" class="fil1" d="m4.768 4.37 3.787 3.787.003.003.003.003.003.003.002.004.003.003-3.786-3.786-.003-.003-.003-.004-.003-.003-.003-.004z"/><path id="_435557680" class="fil1" d="M3.454 1.547c.396-.003.711.114.783.606l.003.018c.014.115.016.25.003.408.006 0 .011.002.016.004.057.024.078.143.045.266-.028.105-.084.179-.136.185a.986.986 0 0 1-.08.238 1.226 1.226 0 0 1-.325.344v.198c.113.05.214.096.304.139.271.13.437.225.543.295.075.05.12.087.15.114a.429.429 0 0 1 .075.11l.005-.001.004.023c.082.188.138.506.197.786H1.786c.06-.284.116-.606.2-.792l.002-.017h.005a.343.343 0 0 1 .075-.11 1.19 1.19 0 0 1 .102-.08c.108-.077.297-.191.647-.356l.247-.112v-.202a1.268 1.268 0 0 1-.325-.34.997.997 0 0 1-.081-.24c-.048-.017-.097-.087-.122-.182-.032-.123-.012-.242.045-.266a.054.054 0 0 1 .022-.004v-.031a1.947 1.947 0 0 1 0-.377 1.04 1.04 0 0 1 .027-.152c.106-.41.434-.47.824-.472z"/></g></g><path class="fil2" d="M3.413 0a3.413 3.413 0 1 1 0 6.827 3.413 3.413 0 0 1 0-6.827z"/><path class="fil3" d="M2.581 2.583c.057-.023.13.058.163.181.033.124.013.243-.045.266-.057.024-.13-.057-.163-.18-.032-.124-.012-.243.045-.267zM4.26 2.583c-.058-.023-.131.058-.164.181-.033.124-.013.243.045.266.057.024.13-.057.163-.18.033-.124.012-.243-.045-.267z"/><path class="fil4" d="M3.088 3.803c-.72.315-.935.483-1.02.559-.132.116-.205.55-.282.918H5.04c-.078-.369-.15-.802-.282-.918-.085-.076-.293-.24-1.012-.555l-.66-.004z"/><path class="fil4" d="M3.763 3.174v.797c-.192.236-.507.227-.699 0v-.797c0-.43.699-.43.699 0z"/><path class="fil5" d="M3.763 3.174v.534a.615.615 0 0 1-.35.13.615.615 0 0 1-.349-.13v-.534c0-.43.699-.43.699 0z"/><path class="fil4" d="M3.413 1.742c-1.172 0-.75 1.417-.674 1.53.06.087.196.276.393.38a.606.606 0 0 0 .286.056.58.58 0 0 0 .258-.043c.212-.101.35-.302.411-.393.077-.113.499-1.53-.674-1.53z"/><path class="fil5" d="M3.722 3.25a.723.723 0 0 1-.618-.086c.048.22.502.284.618.085z"/><path d="M3.784 2.216c.271-.003.38.256.422.66.184-1.112-.208-1.333-.752-1.33-.565.004-1.002.13-.817 1.269.007-.466.19-.756.471-.694.101.022.203.047.306.063.074.01.017.034-.045.041.147.045.287-.008.415-.01z" style="fill:#424242"/><path d="M4.76 4.362c-.072-.063-.228-.187-.693-.41l-.01.011c-.437.473-1.056.24-1.224-.016l-.016-.022c-.506.238-.676.372-.75.437a.372.372 0 0 0-.082.126c.446.084.447.33.462.792H4.38c.015-.462.016-.708.462-.792a.372.372 0 0 0-.083-.126z" style="fill:#2e7d32"/><path class="fil8" d="M2.633 5.151h.219v-.219h-.22zM2.968 5.151h.22v-.219h-.22zM3.304 5.151h.219v-.219h-.219zM3.64 5.151h.218v-.219H3.64zM3.975 5.151h.219v-.219h-.219z"/><path class="fil2" d="M1.985 4.489c.357.064.465.215.461.79"/><path class="fil9" d="M1.988 4.47c.184.034.304.09.379.213.073.121.1.306.098.597h-.037c.002-.284-.023-.463-.093-.578-.067-.113-.18-.165-.353-.196l.006-.035zM4.84 4.47c-.184.034-.304.09-.378.213-.073.121-.1.306-.098.597H4.4c-.002-.284.024-.463.093-.578.068-.113.18-.165.353-.196l-.006-.035z"/><path d="M4.082 3.966a.57.57 0 0 1-.255.213.922.922 0 0 1-.38.079.915.915 0 0 1-.395-.086.548.548 0 0 1-.253-.229l.032-.017c.046.088.13.162.237.213.108.053.24.082.379.082.133 0 .26-.027.365-.075a.534.534 0 0 0 .24-.2l.03.02z" style="fill:#f5d907;fill-rule:nonzero"/><path d="M2.63 2.019c.024-.006.022-.007.046-.011.538-.101 1.056-.107 1.532.01.015.051.023.102.032.153a4.828 4.828 0 0 0-1.637 0c.005-.05.013-.1.026-.152z" style="fill:#66bb6a"/><path d="M2.669 2.01A.597.597 0 0 1 2.71 2v.152a4.673 4.673 0 0 0-.042.007v-.15zm.09-.017.043-.007v.154a4.374 4.374 0 0 0-.043.006v-.153zm.091-.015.043-.006v.157a4.596 4.596 0 0 0-.043.005v-.156zm.09-.012.043-.006v.16a4.567 4.567 0 0 0-.042.004v-.158zm.091-.011.043-.005v.163a4.543 4.543 0 0 0-.043.003v-.161zm.091-.009.043-.003v.164l-.043.002v-.163zm.09-.007.043-.002v.166a4.65 4.65 0 0 0-.042.002v-.166zm.092-.005.042-.001V2.1l-.042.001v-.168zm.09-.002h.043v.17L3.394 2.1v-.17zm.09 0h.043v.17h-.042v-.17zm.092.001.042.002v.17l-.042-.001v-.17zm.09.004.043.003v.17l-.043-.002v-.17zm.091.007.043.004v.169a5.162 5.162 0 0 0-.043-.003v-.17zm.09.01.043.005v.166a5.386 5.386 0 0 0-.042-.004v-.168zm.091.011.043.007v.163a5.069 5.069 0 0 0-.043-.005v-.165zm.091.015.043.008v.158a5.278 5.278 0 0 0-.043-.006v-.16zm.09.018.043.01v.15a5.504 5.504 0 0 0-.042-.005v-.155z" style="fill:#43a047"/></g></svg>